<?xml version="1.0" encoding="utf-8"?>
<!-- Uploaded bee icon, flat style -->
<svg width="512" height="512" viewBox="0 0 512 512" fill="none" xmlns="http://www.w3.org/2000/svg">
  <circle cx="256" cy="256" r="256" fill="#5FC37B"/>
  <g>
    <ellipse cx="256" cy="320" rx="80" ry="40" fill="#E6F0FA"/>
    <ellipse cx="256" cy="256" rx="80" ry="120" fill="#3A312A"/>
    <ellipse cx="256" cy="256" rx="80" ry="80" fill="#F9D264"/>
    <ellipse cx="256" cy="256" rx="40" ry="80" fill="#3A312A"/>
    <ellipse cx="256" cy="256" rx="40" ry="40" fill="#F9D264"/>
    <ellipse cx="256" cy="320" rx="40" ry="20" fill="#F9D264"/>
    <ellipse cx="256" cy="320" rx="20" ry="10" fill="#fff"/>
    <rect x="236" y="120" width="40" height="80" rx="20" fill="#3A312A"/>
    <rect x="236" y="312" width="40" height="80" rx="20" fill="#3A312A"/>
    <rect x="120" y="236" width="80" height="40" rx="20" fill="#3A312A"/>
    <rect x="312" y="236" width="80" height="40" rx="20" fill="#3A312A"/>
    <rect x="140" y="140" width="40" height="80" rx="20" fill="#3A312A"/>
    <rect x="332" y="140" width="40" height="80" rx="20" fill="#3A312A"/>
    <rect x="140" y="292" width="40" height="80" rx="20" fill="#3A312A"/>
    <rect x="332" y="292" width="40" height="80" rx="20" fill="#3A312A"/>
    <polygon points="256,80 236,120 276,120" fill="#3A312A"/>
    <polygon points="256,432 236,392 276,392" fill="#3A312A"/>
  </g>
</svg>
